<svg xmlns="http://www.w3.org/2000/svg" viewBox="0 0 96 128" fill="none">
  <path
    fill="#10577a"
    d="M48 6C23.1 6 7 22.8 7 46.2c0 8.7 2 16.1 5.4 21 1.3 1.9 4.1 1.7 5.2-.3 3-5.1 8.6-6 13-1.7 4.5 4.3 10.5 4.1 14.8-.5l2.6-2.8 2.6 2.8c4.3 4.6 10.3 4.8 14.8.5 4.4-4.3 10-3.4 13 1.7 1.1 2 3.9 2.2 5.2.3 3.4-4.9 5.4-12.3 5.4-21C89 22.8 72.9 6 48 6Z"
  />
  <g stroke="#10577a" stroke-linecap="round" stroke-linejoin="round">
    <path d="M18 72c0 12.5 8 15.1 8 26.2 0 8.2-5.4 12.7-5.4 22.8" stroke-width="7.2" />
    <path d="M30.5 70.5c-1.8 12.6 7.6 15.4 7.6 27.4 0 8.2-7.5 12.7-7.5 23" stroke-width="7.2" />
    <path d="M43 70.5c-5.8 12.3-.5 18.4 4.8 25.6 5.9 7.9 1.5 15.5-5.2 24.9" stroke-width="7.4" />
    <path d="M53.4 70.5c5.8 12.3.5 18.4-4.8 25.6-5.9 7.9-1.5 15.5 5.2 24.9" stroke-width="7.4" />
    <path d="M65.5 70.5c1.8 12.6-7.6 15.4-7.6 27.4 0 8.2 7.5 12.7 7.5 23" stroke-width="7.2" />
    <path d="M78 72c0 12.5-8 15.1-8 26.2 0 8.2 5.4 12.7 5.4 22.8" stroke-width="7.2" />
  </g>
</svg>
